<svg width="24" height="24" viewBox="0 0 24 24" fill="none" xmlns="http://www.w3.org/2000/svg">
<path fill-rule="evenodd" clip-rule="evenodd" d="M5.15793 1.33337C4.32039 1.33337 3.51716 1.67052 2.92494 2.27063C2.33271 2.87075 2 3.68468 2 4.53337V19.4667C2 20.3154 2.33271 21.1293 2.92494 21.7294C3.51716 22.3296 4.32039 22.6667 5.15793 22.6667H11.4738C12.3113 22.6667 13.1146 22.3296 13.7068 21.7294C14.299 21.1293 14.6317 20.3154 14.6317 19.4667V4.53337C14.6317 3.68468 14.299 2.87075 13.7068 2.27063C13.1146 1.67052 12.3113 1.33337 11.4738 1.33337H5.15793ZM15.9928 6.97924C16.1902 6.77927 16.4579 6.66694 16.737 6.66694C17.0161 6.66694 17.2838 6.77927 17.4812 6.97924L21.6918 11.2459C21.8891 11.4459 22 11.7172 22 12C22 12.2829 21.8891 12.5541 21.6918 12.7542L17.4812 17.0208C17.2827 17.2151 17.0168 17.3227 16.7408 17.3202C16.4648 17.3178 16.2008 17.2056 16.0056 17.0078C15.8104 16.8101 15.6997 16.5425 15.6973 16.2629C15.6949 15.9832 15.801 15.7137 15.9928 15.5126L18.4065 13.0667H9.3685C9.08933 13.0667 8.82158 12.9543 8.62417 12.7543C8.42676 12.5542 8.31586 12.2829 8.31586 12C8.31586 11.7171 8.42676 11.4458 8.62417 11.2458C8.82158 11.0458 9.08933 10.9334 9.3685 10.9334H18.4065L15.9928 8.48751C15.7954 8.28748 15.6846 8.01622 15.6846 7.73337C15.6846 7.45053 15.7954 7.17927 15.9928 6.97924Z" fill="url(#paint0_linear_18581_1574)"/>
<defs>
<linearGradient id="paint0_linear_18581_1574" x1="12" y1="1.33337" x2="12" y2="22.6667" gradientUnits="userSpaceOnUse">
<stop stop-color="#5C5C5C"/>
<stop offset="1"/>
</linearGradient>
</defs>
</svg>
