<svg width="26" height="27" viewBox="0 0 26 27" fill="none" xmlns="http://www.w3.org/2000/svg">
<path d="M12.6081 24.2816C10.202 21.909 7.17387 20.0648 3.88245 19.9715V3.90264L3.96365 3.82975C7.2983 3.91066 10.2898 5.97639 12.6081 8.48604V24.2816ZM5.3389 11.1444C5.02194 11.2238 4.94139 11.7669 5.21906 11.9637C5.42993 12.1131 6.32384 12.2757 6.65259 12.3864C7.85953 12.7939 9.03962 13.466 10.0842 14.2408C10.3409 14.431 11.1424 15.1884 11.3304 15.2554C11.7515 15.4063 12.0789 14.8217 11.6768 14.3778C10.6676 13.2626 8.16929 11.9075 6.79928 11.4585C6.47839 11.3536 5.62705 11.0715 5.33824 11.1437L5.3389 11.1444ZM5.33955 15.5084C5.00229 15.5915 4.95449 16.168 5.23608 16.3641C7.51048 16.8284 9.5275 18.0567 11.3317 19.6202C11.7862 19.7149 12.0678 19.1967 11.7272 18.7965C11.5275 18.5625 10.9486 18.1419 10.6827 17.9408C9.64014 17.1506 8.36444 16.4042 7.16536 15.9632C6.80779 15.832 5.64735 15.4326 5.33955 15.5084Z" fill="url(#paint0_linear_18548_481)"/>
<path d="M19.8137 0.820068V16.9159C19.0953 17.1397 18.4175 17.6711 17.8307 18.1733C16.0691 19.6785 14.6945 21.6611 13.4411 23.6817V8.43137C14.0449 7.31978 14.6676 6.21839 15.3821 5.19063C16.5733 3.47695 18.0436 1.77494 19.8137 0.820068Z" fill="url(#paint1_linear_18548_481)"/>
<path d="M22.1667 3.821V19.9715C21.9067 20.0772 21.6264 19.9977 21.3585 20.0269C19.7135 20.2055 18.1234 20.8353 16.6755 21.6895L15.0586 22.8084C16.2302 21.0292 17.7024 19.1515 19.4692 18.088C19.7384 17.9262 20.3389 17.7162 20.5177 17.5639C20.5995 17.4939 20.6336 17.4006 20.6722 17.2993L20.6932 4.02145C20.7207 3.88952 21.9617 3.83193 22.166 3.82173L22.1667 3.821Z" fill="url(#paint2_linear_18548_481)"/>
<path d="M1.43124 9.11363V25.1278C1.43124 25.2306 1.65586 25.5331 1.79797 25.4835L10.5498 25.4558C10.7986 25.3961 11.314 24.9784 11.5013 24.9923C11.5891 24.9988 12.3153 25.4063 12.2649 25.4821C11.9191 25.6053 11.6159 25.8458 11.2832 25.9996C11.1156 26.0769 10.6244 26.3014 10.4758 26.3014H0.5V9.11363H1.43124Z" fill="url(#paint3_linear_18548_481)"/>
<path d="M25.5 9.11363V26.3006H15.5242C15.4339 26.3006 15.0756 26.1541 14.961 26.1089C14.538 25.9406 14.1588 25.6475 13.7351 25.4821C13.8766 25.3378 14.3769 24.9959 14.5439 24.9959C14.7109 24.9959 15.3297 25.4828 15.4751 25.4828H24.5681V9.19527L24.6415 9.11363H25.5Z" fill="url(#paint4_linear_18548_481)"/>
<path d="M3.04879 6.65792V20.5984C3.04879 20.6312 3.17911 20.8127 3.21906 20.8455C3.46922 21.0466 4.11952 20.9242 4.44761 20.9512C6.04551 21.0816 7.78225 21.7442 9.16012 22.6357L9.76392 23.081C7.30092 22.444 4.75409 22.1546 2.26424 22.8084V6.82193L3.04879 6.65792Z" fill="url(#paint5_linear_18548_481)"/>
<path d="M23.7358 6.82193V22.8084C21.2171 22.1305 18.5406 22.3689 16.0887 23.2443C17.6015 22.0547 19.5904 21.1137 21.4568 20.9541C21.7901 20.9256 22.6139 21.0204 22.8536 20.817C22.9014 20.7762 23.0003 20.5933 23.0003 20.5444V6.65792L23.7358 6.82193Z" fill="url(#paint6_linear_18548_481)"/>
<path d="M23.7358 24.5542H15.6722C15.6631 24.5542 15.5851 24.4667 15.5989 24.4456C16.333 24.1518 17.0776 23.8741 17.8445 23.6984C19.3035 23.3631 20.8019 23.2691 22.2839 23.4703C22.538 23.5045 23.4784 23.6452 23.6532 23.7465C23.8281 23.8479 23.7024 24.3559 23.7364 24.5549L23.7358 24.5542Z" fill="url(#paint7_linear_18548_481)"/>
<path d="M2.2649 24.5542C2.29764 24.3785 2.18435 23.8136 2.34741 23.7458C5.04879 23.108 7.87786 23.3566 10.4509 24.4456C10.4718 24.5002 10.3369 24.5542 10.3284 24.5542H2.2649Z" fill="url(#paint8_linear_18548_481)"/>
<defs>
<linearGradient id="paint0_linear_18548_481" x1="13" y1="0.820068" x2="13" y2="26.3014" gradientUnits="userSpaceOnUse">
<stop stop-color="#F8E889"/>
<stop offset="1" stop-color="#E4B764"/>
</linearGradient>
<linearGradient id="paint1_linear_18548_481" x1="13" y1="0.820068" x2="13" y2="26.3014" gradientUnits="userSpaceOnUse">
<stop stop-color="#F8E889"/>
<stop offset="1" stop-color="#E4B764"/>
</linearGradient>
<linearGradient id="paint2_linear_18548_481" x1="13" y1="0.820068" x2="13" y2="26.3014" gradientUnits="userSpaceOnUse">
<stop stop-color="#F8E889"/>
<stop offset="1" stop-color="#E4B764"/>
</linearGradient>
<linearGradient id="paint3_linear_18548_481" x1="13" y1="0.820068" x2="13" y2="26.3014" gradientUnits="userSpaceOnUse">
<stop stop-color="#F8E889"/>
<stop offset="1" stop-color="#E4B764"/>
</linearGradient>
<linearGradient id="paint4_linear_18548_481" x1="13" y1="0.820068" x2="13" y2="26.3014" gradientUnits="userSpaceOnUse">
<stop stop-color="#F8E889"/>
<stop offset="1" stop-color="#E4B764"/>
</linearGradient>
<linearGradient id="paint5_linear_18548_481" x1="13" y1="0.820068" x2="13" y2="26.3014" gradientUnits="userSpaceOnUse">
<stop stop-color="#F8E889"/>
<stop offset="1" stop-color="#E4B764"/>
</linearGradient>
<linearGradient id="paint6_linear_18548_481" x1="13" y1="0.820068" x2="13" y2="26.3014" gradientUnits="userSpaceOnUse">
<stop stop-color="#F8E889"/>
<stop offset="1" stop-color="#E4B764"/>
</linearGradient>
<linearGradient id="paint7_linear_18548_481" x1="13" y1="0.820068" x2="13" y2="26.3014" gradientUnits="userSpaceOnUse">
<stop stop-color="#F8E889"/>
<stop offset="1" stop-color="#E4B764"/>
</linearGradient>
<linearGradient id="paint8_linear_18548_481" x1="13" y1="0.820068" x2="13" y2="26.3014" gradientUnits="userSpaceOnUse">
<stop stop-color="#F8E889"/>
<stop offset="1" stop-color="#E4B764"/>
</linearGradient>
</defs>
</svg>
