<svg width="24" height="24" viewBox="0 0 24 24" fill="none" xmlns="http://www.w3.org/2000/svg">
<g clip-path="url(#clip0_18581_1565)">
<path d="M1.15662 23.3333C1.1495 23.3217 1.1455 23.3044 1.13528 23.2995C0.774696 23.1262 0.611968 22.8525 0.683106 22.5357C0.75869 22.1989 1.02501 22.0118 1.42205 22.0029C1.62524 21.9985 1.8969 22.0936 2.0125 21.9616C2.11209 21.8478 2.04184 21.5826 2.04184 21.3844C2.04273 19.1777 2.04184 16.9711 2.04228 14.7645C2.04228 14.185 2.28193 13.9446 2.85904 13.9442C3.64867 13.9442 4.43785 13.9438 5.22748 13.9442C5.77836 13.9442 6.02734 14.1908 6.02734 14.7369C6.02734 17.0542 6.02734 19.3719 6.02734 21.6892C6.02734 21.8998 6.12886 22.0051 6.3319 22.0051C6.59022 22.0051 6.84898 21.9931 7.10641 22.0091C7.29715 22.0207 7.36296 21.9785 7.36162 21.7665C7.35051 20.3126 7.3554 18.8587 7.35584 17.4048C7.35584 16.844 7.60082 16.6023 8.1677 16.6019C8.972 16.6019 9.77631 16.6005 10.5806 16.6019C11.0821 16.6027 11.3405 16.8622 11.3405 17.3675C11.3413 18.8436 11.344 20.3197 11.3365 21.7954C11.3356 21.9709 11.3822 22.0167 11.553 22.0087C11.8624 21.9945 12.1732 21.9949 12.4822 22.0087C12.6409 22.0158 12.6734 21.9669 12.673 21.8145C12.6676 19.6079 12.6694 17.4012 12.6694 15.1946C12.6694 14.1539 12.669 13.1133 12.6694 12.0726C12.6694 11.5389 12.921 11.2874 13.4537 11.287C14.258 11.2861 15.0623 11.2861 15.8666 11.287C16.4015 11.2874 16.654 11.5381 16.654 12.0695C16.6545 15.3021 16.6558 18.5348 16.65 21.767C16.65 21.9491 16.6749 22.0269 16.8821 22.01C17.1609 21.9878 17.4432 21.99 17.7224 22.0091C17.9283 22.0234 17.9883 21.9754 17.9883 21.7541C17.9803 17.3777 17.9825 13.0013 17.9825 8.62446C17.9825 8.41784 17.9798 8.21122 17.983 8.0046C17.9901 7.57535 18.2608 7.30341 18.6934 7.30119C19.5418 7.29764 20.3905 7.29808 21.2388 7.30119C21.6977 7.30252 21.9658 7.57135 21.9662 8.03214C21.9685 9.41229 21.9671 10.7924 21.9671 12.1726C21.9671 15.3755 21.9689 18.5788 21.9627 21.7816C21.9627 21.9629 22 22.0367 22.1876 22.0069C22.2739 21.9931 22.365 22.0127 22.4526 22.0034C22.8635 21.9594 23.1636 22.1113 23.3396 22.4917V22.8458C23.2814 23.1125 23.1191 23.2751 22.8528 23.3328H1.15662V23.3333Z" fill="url(#paint0_linear_18581_1565)"/>
<path d="M14.6813 4.64265C15.0245 4.65643 15.3317 4.72841 15.6092 4.89282C15.719 4.95814 15.7937 4.96258 15.9017 4.87993C16.5873 4.35605 17.2782 3.83971 17.9705 3.32516C18.0536 3.26339 18.0803 3.21096 18.0523 3.10654C17.7891 2.12942 18.3724 1.10786 19.279 0.791926C20.3132 0.431559 21.3371 0.868799 21.7933 1.84281C22.129 2.55999 21.9489 3.50912 21.37 4.06855C20.7489 4.66887 19.7974 4.81639 19.062 4.40981C18.9162 4.32939 18.8255 4.33427 18.6952 4.43425C18.0403 4.93681 17.3783 5.43093 16.7149 5.92282C16.6033 6.00547 16.5611 6.07079 16.5958 6.22676C16.754 6.9466 16.5553 7.5798 16.0209 8.07747C15.4482 8.61069 14.7649 8.76754 14.0152 8.50449C13.8472 8.44539 13.756 8.47471 13.6387 8.59424C12.8557 9.38741 12.0674 10.1748 11.2755 10.9595C11.1799 11.0542 11.1528 11.1261 11.2044 11.2621C11.6214 12.3672 11.0208 13.5203 9.85634 13.8678C8.80928 14.1802 7.64528 13.4767 7.40697 12.3814C7.37407 12.2312 7.34828 12.0713 7.36473 11.9206C7.38296 11.7527 7.33094 11.6754 7.18155 11.6038C6.63735 11.3439 6.09892 11.0719 5.56228 10.7964C5.45468 10.7409 5.38354 10.7444 5.28929 10.8231C4.29291 11.6554 2.81102 11.299 2.23836 10.1508C1.66481 8.99994 2.44288 7.49804 3.71847 7.33541C5.02341 7.16922 6.05846 8.10191 6.01578 9.41007C6.01267 9.50783 6.0389 9.55537 6.12249 9.5967C6.70315 9.8833 7.28248 10.1717 7.85959 10.4641C7.9365 10.5027 7.98897 10.5023 8.05655 10.4481C8.675 9.94995 9.35482 9.81754 10.1018 10.1184C10.188 10.153 10.236 10.1224 10.2929 10.065C11.1213 9.23411 11.9509 8.40406 12.7828 7.57624C12.8526 7.50648 12.8495 7.45094 12.8179 7.36296C12.4009 6.19343 12.9722 5.06967 14.1566 4.71641C14.3349 4.66309 14.519 4.65554 14.6808 4.64221L14.6813 4.64265Z" fill="url(#paint1_linear_18581_1565)"/>
</g>
<defs>
<linearGradient id="paint0_linear_18581_1565" x1="12.0032" y1="0.666626" x2="12.0032" y2="23.3333" gradientUnits="userSpaceOnUse">
<stop stop-color="#5C5C5C"/>
<stop offset="1"/>
</linearGradient>
<linearGradient id="paint1_linear_18581_1565" x1="12.0032" y1="0.666626" x2="12.0032" y2="23.3333" gradientUnits="userSpaceOnUse">
<stop stop-color="#5C5C5C"/>
<stop offset="1"/>
</linearGradient>
<clipPath id="clip0_18581_1565">
<rect width="24" height="24" fill="white"/>
</clipPath>
</defs>
</svg>
