<svg width="20" height="20" viewBox="0 0 20 20" fill="none" xmlns="http://www.w3.org/2000/svg">
<path d="M19.5473 7.71295C20.151 8.75394 20.151 10.0365 19.5473 11.0775L16.4293 16.4542C15.8256 17.4952 14.71 18.1365 13.5027 18.1364L7.26666 18.1364C6.05932 18.1364 4.94369 17.4952 4.34002 16.4542L1.22204 11.0774C0.618368 10.0364 0.618371 8.7539 1.22204 7.71291L4.34005 2.33618C4.94372 1.2952 6.05935 0.653928 7.2667 0.653931L13.5027 0.653944C14.71 0.653947 15.8257 1.29522 16.4293 2.33621L19.5473 7.71295Z" fill="url(#paint0_linear_18581_1023)"/>
<path d="M19.4201 7.75876C20.0153 8.78529 20.0153 10.05 19.42 11.0765L16.3453 16.3786C15.7501 17.4051 14.6499 18.0375 13.4594 18.0375L7.30997 18.0375C6.1194 18.0375 5.01926 17.4051 4.42398 16.3786L1.3493 11.0765C0.754018 10.05 0.75402 8.78525 1.34931 7.75872L4.42401 2.45667C5.0193 1.43014 6.11944 0.797779 7.31001 0.797781L13.4594 0.797795C14.65 0.797797 15.7501 1.43016 16.3454 2.45669L19.4201 7.75876Z" fill="url(#paint1_linear_18581_1023)"/>
<path fill-rule="evenodd" clip-rule="evenodd" d="M2.25204 10.1798C2.06255 8.10829 2.66701 5.96438 4.11021 4.24077C5.55342 2.51643 7.5629 1.53767 9.64435 1.34908C11.7258 1.1605 13.8792 1.76208 15.6118 3.19842C17.3444 4.63476 18.3278 6.63467 18.5173 8.70622C18.7068 10.7778 18.1024 12.9217 16.6592 14.6453C15.2159 16.3696 13.2065 17.3484 11.125 17.537C9.04357 17.7256 6.89014 17.124 5.15682 15.6876C3.42423 14.2513 2.44079 12.2514 2.2513 10.1798H2.25204Z" fill="url(#paint2_linear_18581_1023)"/>
<path fill-rule="evenodd" clip-rule="evenodd" d="M2.51439 10.156C2.33101 8.15126 2.91597 6.07651 4.31262 4.4085C5.70928 2.73978 7.65393 1.7926 9.66824 1.61009C11.6825 1.42759 13.7665 2.00976 15.4432 3.39977C17.1199 4.78978 18.0716 6.72518 18.255 8.7299C18.4384 10.7346 17.8534 12.8094 16.4568 14.4774C15.0601 16.1461 13.1155 17.0933 11.1011 17.2758C9.08683 17.4583 7.00287 16.8761 5.32546 15.4861C3.64877 14.0961 2.69705 12.1607 2.51368 10.156H2.51439Z" fill="url(#paint3_linear_18581_1023)"/>
<path d="M18.2518 9.39519C18.2518 13.7398 14.7295 17.2623 10.3841 17.2623C9.80849 17.2623 9.24833 17.2004 8.70805 17.0833C5.1692 16.3165 2.51754 13.1652 2.51754 9.39519C2.51754 8.85819 2.57168 8.33445 2.67332 7.82839C3.40032 4.23515 6.57678 1.52806 10.3841 1.52806C14.7295 1.52806 18.2518 5.05059 18.2518 9.39519Z" fill="url(#paint4_linear_18581_1023)"/>
<defs>
<linearGradient id="paint0_linear_18581_1023" x1="3.11313" y1="4.31358" x2="18.3932" y2="12.8634" gradientUnits="userSpaceOnUse">
<stop stop-color="#B78B41"/>
<stop offset="0.1" stop-color="#E2D07C"/>
<stop offset="0.16" stop-color="#FCF5A6"/>
<stop offset="0.28" stop-color="#D3B666"/>
<stop offset="0.42" stop-color="#C6A356"/>
<stop offset="0.7" stop-color="#B88D43"/>
<stop offset="0.82" stop-color="#F9F4A6"/>
<stop offset="0.94" stop-color="#B78B41"/>
</linearGradient>
<linearGradient id="paint1_linear_18581_1023" x1="3.11313" y1="4.31358" x2="18.3932" y2="12.8634" gradientUnits="userSpaceOnUse">
<stop offset="0.06" stop-color="#B78B41"/>
<stop offset="0.18" stop-color="#F9F4A6"/>
<stop offset="0.3" stop-color="#B88D43"/>
<stop offset="0.58" stop-color="#C6A356"/>
<stop offset="0.72" stop-color="#D3B666"/>
<stop offset="0.84" stop-color="#FCF5A6"/>
<stop offset="0.9" stop-color="#E2D07C"/>
<stop offset="1" stop-color="#B78B41"/>
</linearGradient>
<linearGradient id="paint2_linear_18581_1023" x1="3.69642" y1="2.81891" x2="21.4897" y2="20.9161" gradientUnits="userSpaceOnUse">
<stop stop-color="#B78B41"/>
<stop offset="0.1" stop-color="#E2D07C"/>
<stop offset="0.16" stop-color="#FCF5A6"/>
<stop offset="0.28" stop-color="#D3B666"/>
<stop offset="0.42" stop-color="#C6A356"/>
<stop offset="0.7" stop-color="#B88D43"/>
<stop offset="0.82" stop-color="#F9F4A6"/>
<stop offset="0.94" stop-color="#B78B41"/>
</linearGradient>
<linearGradient id="paint3_linear_18581_1023" x1="3.69642" y1="2.81891" x2="21.4897" y2="20.9161" gradientUnits="userSpaceOnUse">
<stop stop-color="#B78B41"/>
<stop offset="0.1" stop-color="#E2D07C"/>
<stop offset="0.16" stop-color="#FCF5A6"/>
<stop offset="0.28" stop-color="#D3B666"/>
<stop offset="0.42" stop-color="#C6A356"/>
<stop offset="0.7" stop-color="#B88D43"/>
<stop offset="0.82" stop-color="#F9F4A6"/>
<stop offset="0.94" stop-color="#B78B41"/>
</linearGradient>
<linearGradient id="paint4_linear_18581_1023" x1="10.3847" y1="0.653931" x2="10.3847" y2="18.1364" gradientUnits="userSpaceOnUse">
<stop stop-color="#5C5C5C"/>
<stop offset="1"/>
</linearGradient>
</defs>
</svg>
